# xmcd
#
# Track frame offsets:
#	150
#	11902
#	25880
#	39150
#	49795
#	62220
#	76500
#	89925
#	103575
#	116145
#	129847
#	141945
#	156435
#	170567
#	184112
#	197285
#	211337
#	223280
#	236110
#	247132
#
# Disc length: 3464 seconds
#
# Revision: 1
# Processed by: cddbd v1.4PL0 Copyright (c) Steve Scherf et al.
# Submitted via: audiograbber 1.81.01
#
DISCID=240d8614
DTITLE=Ernest Tubb - The Definitive Hits (Disk 1)
DYEAR=2001
DGENRE=
TTITLE0=Walking the Floor Over You
TTITLE1=Our Baby's Book
TTITLE2=Mean Mama Blues
TTITLE3=Try Me One More Time
TTITLE4=You Nearly Lose Your Mind
TTITLE5=Soldier's Last Letter
TTITLE6=Yesterday's Tears
TTITLE7=Tomorrow Never Comes
TTITLE8=Careless Darlin'
TTITLE9=Keep My Mem'ry in Your Heart
TTITLE10=I'll Step Aside
TTITLE11=It's Been So Long, Darling
TTITLE12=Rainbow at Midnight
TTITLE13=Filipino Baby
TTITLE14=Drivin' Nails in My Coffin
TTITLE15=Don't Look Now (but Your Broken Heart Is Showing)
TTITLE16=That Wild and Wicked Look in Your Eye
TTITLE17=Have You Ever Been Lonely
TTITLE18=Til the End of the World
TTITLE19=I'm Bitin' My Fingernails and Thinking of You
EXTD=
EXTT0=
EXTT1=
EXTT2=
EXTT3=
EXTT4=
EXTT5=
EXTT6=
EXTT7=
EXTT8=
EXTT9=
EXTT10=
EXTT11=
EXTT12=
EXTT13=
EXTT14=
EXTT15=
EXTT16=
EXTT17=
EXTT18=
EXTT19=
PLAYORDER=
